<svg width="45" height="45" viewBox="0 0 45 45" fill="none" xmlns="http://www.w3.org/2000/svg">
<path d="M1.11298 21.8979C1.37773 14.879 4.93483 8.40526 11.4375 4.12741C11.4567 4.13461 11.6251 4.07326 11.5482 4.21891C11.0331 4.69651 1.77237 15.636 10.2966 24.2709C10.2966 24.2709 14.7753 28.5765 18.2482 24.4911C18.2482 24.4911 21.6753 20.0546 18.2049 13.3292C18.2049 13.3292 17.3265 11.1332 14.1616 9.77101L16.7104 6.95881C16.7104 6.95881 18.8643 7.88296 20.5321 10.3895C20.5321 10.3895 20.6211 7.75051 18.5995 4.93846L22.5513 0.454956L26.4633 4.89631C26.4633 4.89631 24.6643 7.44496 24.5319 10.4316C24.5319 10.4316 25.7605 8.41006 28.3983 6.95896L30.9012 9.77116C30.9012 9.77116 28.4944 10.5642 26.8821 13.3005C25.4958 15.8358 24.4285 21.258 26.9445 24.584C26.9445 24.584 29.7603 28.5767 34.7133 24.3483C34.7133 24.3483 43.8201 16.1885 33.7794 4.39111C33.7794 4.39111 33.2307 3.90616 33.8467 4.16971C38.2846 7.40071 43.5985 11.6616 44.1472 22.2953C43.9306 35.1902 35.2954 44.3954 22.6861 44.3954C10.3401 44.3952 0.742475 34.0925 1.11298 21.8979Z" fill="white"/>
</svg>
